<svg width="18" height="15" viewBox="0 0 18 15" fill="none" xmlns="http://www.w3.org/2000/svg">
<path d="M0 15V10.5433C0 9.27785 0.255682 7.98487 0.767045 6.66437C1.27841 5.34388 1.95312 4.09904 2.79119 2.92985C3.62926 1.76066 4.53835 0.784043 5.51847 0L9.52415 2.29023C8.72869 3.50069 8.07528 4.76616 7.56392 6.08666C7.06676 7.40715 6.81818 8.87895 6.81818 10.5021V15H0Z" fill="#FF6900"/>
<path d="M7.69739 15V10.5433C7.69739 9.27785 7.95307 7.98487 8.46443 6.66437C8.9758 5.34388 9.65051 4.09904 10.4886 2.92985C11.3266 1.76066 12.2357 0.784043 13.2159 0L17.2215 2.29023C16.4261 3.50069 15.7727 4.76616 15.2613 6.08666C14.7641 7.40715 14.5156 8.87895 14.5156 10.5021V15H7.69739Z" fill="#FF6900"/>
</svg>
