<svg width="25" height="24" viewBox="0 0 25 24" fill="none" xmlns="http://www.w3.org/2000/svg">
<g clip-path="url(#clip0_314_9693)">
<path d="M13.518 20.687C13.185 20.806 12.845 20.91 12.5 21C10.9432 20.5962 9.48348 19.8836 8.20754 18.9045C6.93161 17.9254 5.86551 16.6998 5.07259 15.3005C4.27968 13.9013 3.77613 12.3569 3.59187 10.7592C3.40762 9.16147 3.54641 7.54302 4 6C7.11553 6.14257 10.1642 5.06658 12.5 3C14.8358 5.06658 17.8845 6.14257 21 6C21.433 7.472 21.575 8.998 21.436 10.495" stroke="#FF6900" stroke-width="2" stroke-linecap="round" stroke-linejoin="round"/>
<path d="M21.5 15H19C18.6022 15 18.2206 15.158 17.9393 15.4393C17.658 15.7206 17.5 16.1022 17.5 16.5C17.5 16.8978 17.658 17.2794 17.9393 17.5607C18.2206 17.842 18.6022 18 19 18H20C20.3978 18 20.7794 18.158 21.0607 18.4393C21.342 18.7206 21.5 19.1022 21.5 19.5C21.5 19.8978 21.342 20.2794 21.0607 20.5607C20.7794 20.842 20.3978 21 20 21H17.5" stroke="#040404" stroke-width="2" stroke-linecap="round" stroke-linejoin="round"/>
<path d="M19.5 21V22M19.5 14V15" stroke="#040404" stroke-width="2" stroke-linecap="round" stroke-linejoin="round"/>
</g>
<defs>
<clipPath id="clip0_314_9693">
<rect width="24" height="24" fill="white" transform="translate(0.5)"/>
</clipPath>
</defs>
</svg>
