<svg width="25" height="24" viewBox="0 0 25 24" fill="none" xmlns="http://www.w3.org/2000/svg">
<g clip-path="url(#clip0_314_9686)">
<path d="M5.5 13C5.5 13.9193 5.68106 14.8295 6.03284 15.6788C6.38463 16.5281 6.90024 17.2997 7.55025 17.9497C8.20026 18.5998 8.97194 19.1154 9.82122 19.4672C10.6705 19.8189 11.5807 20 12.5 20C13.4193 20 14.3295 19.8189 15.1788 19.4672C16.0281 19.1154 16.7997 18.5998 17.4497 17.9497C18.0998 17.2997 18.6154 16.5281 18.9672 15.6788C19.3189 14.8295 19.5 13.9193 19.5 13C19.5 12.0807 19.3189 11.1705 18.9672 10.3212C18.6154 9.47194 18.0998 8.70026 17.4497 8.05025C16.7997 7.40024 16.0281 6.88463 15.1788 6.53284C14.3295 6.18106 13.4193 6 12.5 6C11.5807 6 10.6705 6.18106 9.82122 6.53284C8.97194 6.88463 8.20026 7.40024 7.55025 8.05025C6.90024 8.70026 6.38463 9.47194 6.03284 10.3212C5.68106 11.1705 5.5 12.0807 5.5 13Z" stroke="#FF6900" stroke-width="2" stroke-linecap="round" stroke-linejoin="round"/>
<path d="M12.5 10V13H14.5" stroke="#040404" stroke-width="2" stroke-linecap="round" stroke-linejoin="round"/>
<path d="M7.5 4L4.75 6" stroke="#FF6900" stroke-width="2" stroke-linecap="round" stroke-linejoin="round"/>
<path d="M17.5 4L20.25 6" stroke="#FF6900" stroke-width="2" stroke-linecap="round" stroke-linejoin="round"/>
</g>
<defs>
<clipPath id="clip0_314_9686">
<rect width="24" height="24" fill="white" transform="translate(0.5)"/>
</clipPath>
</defs>
</svg>
